<svg id="visual" viewBox="0 0 900 600" width="900" height="600" xmlns="http://www.w3.org/2000/svg" xmlns:xlink="http://www.w3.org/1999/xlink" version="1.1"><rect x="0" y="0" width="900" height="600" fill="#ffffff"></rect><path d="M0 221L13.7 209.7C27.3 198.3 54.7 175.7 82 169.3C109.3 163 136.7 173 163.8 203.2C191 233.3 218 283.7 245.2 290.2C272.3 296.7 299.7 259.3 327 238.3C354.3 217.3 381.7 212.7 409 231C436.3 249.3 463.7 290.7 491 287.7C518.3 284.7 545.7 237.3 573 235.5C600.3 233.7 627.7 277.3 654.8 265.2C682 253 709 185 736.2 185C763.3 185 790.7 253 818 282.2C845.3 311.3 872.7 301.7 886.3 296.8L900 292L900 601L886.3 601C872.7 601 845.3 601 818 601C790.7 601 763.3 601 736.2 601C709 601 682 601 654.8 601C627.7 601 600.3 601 573 601C545.7 601 518.3 601 491 601C463.7 601 436.3 601 409 601C381.7 601 354.3 601 327 601C299.7 601 272.3 601 245.2 601C218 601 191 601 163.8 601C136.7 601 109.3 601 82 601C54.7 601 27.3 601 13.7 601L0 601Z" fill="#ffffff"></path><path d="M0 204L13.7 227.8C27.3 251.7 54.7 299.3 82 306.3C109.3 313.3 136.7 279.7 163.8 275.7C191 271.7 218 297.3 245.2 312.5C272.3 327.7 299.7 332.3 327 308C354.3 283.7 381.7 230.3 409 233.3C436.3 236.3 463.7 295.7 491 310C518.3 324.3 545.7 293.7 573 272.7C600.3 251.7 627.7 240.3 654.8 230.7C682 221 709 213 736.2 208.3C763.3 203.7 790.7 202.3 818 224.7C845.3 247 872.7 293 886.3 316L900 339L900 601L886.3 601C872.7 601 845.3 601 818 601C790.7 601 763.3 601 736.2 601C709 601 682 601 654.8 601C627.7 601 600.3 601 573 601C545.7 601 518.3 601 491 601C463.7 601 436.3 601 409 601C381.7 601 354.3 601 327 601C299.7 601 272.3 601 245.2 601C218 601 191 601 163.8 601C136.7 601 109.3 601 82 601C54.7 601 27.3 601 13.7 601L0 601Z" fill="#d1d7ef"></path><path d="M0 328L13.7 331.5C27.3 335 54.7 342 82 351.2C109.3 360.3 136.7 371.7 163.8 346.8C191 322 218 261 245.2 230.7C272.3 200.3 299.7 200.7 327 212.7C354.3 224.7 381.7 248.3 409 254.7C436.3 261 463.7 250 491 239.7C518.3 229.3 545.7 219.7 573 219C600.3 218.3 627.7 226.7 654.8 239.5C682 252.3 709 269.7 736.2 270.7C763.3 271.7 790.7 256.3 818 246.2C845.3 236 872.7 231 886.3 228.5L900 226L900 601L886.3 601C872.7 601 845.3 601 818 601C790.7 601 763.3 601 736.2 601C709 601 682 601 654.8 601C627.7 601 600.3 601 573 601C545.7 601 518.3 601 491 601C463.7 601 436.3 601 409 601C381.7 601 354.3 601 327 601C299.7 601 272.3 601 245.2 601C218 601 191 601 163.8 601C136.7 601 109.3 601 82 601C54.7 601 27.3 601 13.7 601L0 601Z" fill="#a2b0df"></path><path d="M0 288L13.7 294.5C27.3 301 54.7 314 82 311.3C109.3 308.7 136.7 290.3 163.8 276.3C191 262.3 218 252.7 245.2 259.7C272.3 266.7 299.7 290.3 327 295.2C354.3 300 381.7 286 409 296.3C436.3 306.7 463.7 341.3 491 350.2C518.3 359 545.7 342 573 337.8C600.3 333.7 627.7 342.3 654.8 346.8C682 351.3 709 351.7 736.2 353.3C763.3 355 790.7 358 818 354.2C845.3 350.3 872.7 339.7 886.3 334.3L900 329L900 601L886.3 601C872.7 601 845.3 601 818 601C790.7 601 763.3 601 736.2 601C709 601 682 601 654.8 601C627.7 601 600.3 601 573 601C545.7 601 518.3 601 491 601C463.7 601 436.3 601 409 601C381.7 601 354.3 601 327 601C299.7 601 272.3 601 245.2 601C218 601 191 601 163.8 601C136.7 601 109.3 601 82 601C54.7 601 27.3 601 13.7 601L0 601Z" fill="#708bce"></path><path d="M0 304L13.7 315C27.3 326 54.7 348 82 360.5C109.3 373 136.7 376 163.8 379.3C191 382.7 218 386.3 245.2 373.8C272.3 361.3 299.7 332.7 327 331.2C354.3 329.7 381.7 355.3 409 351.5C436.3 347.7 463.7 314.3 491 315C518.3 315.7 545.7 350.3 573 352.5C600.3 354.7 627.7 324.3 654.8 319.7C682 315 709 336 736.2 337.2C763.3 338.3 790.7 319.7 818 312.8C845.3 306 872.7 311 886.3 313.5L900 316L900 601L886.3 601C872.7 601 845.3 601 818 601C790.7 601 763.3 601 736.2 601C709 601 682 601 654.8 601C627.7 601 600.3 601 573 601C545.7 601 518.3 601 491 601C463.7 601 436.3 601 409 601C381.7 601 354.3 601 327 601C299.7 601 272.3 601 245.2 601C218 601 191 601 163.8 601C136.7 601 109.3 601 82 601C54.7 601 27.3 601 13.7 601L0 601Z" fill="#2c68bd"></path><path d="M0 432L13.7 418.3C27.3 404.7 54.7 377.3 82 380.7C109.3 384 136.7 418 163.8 423.5C191 429 218 406 245.2 395.5C272.3 385 299.7 387 327 398.3C354.3 409.7 381.7 430.3 409 423C436.3 415.7 463.7 380.3 491 375.2C518.3 370 545.7 395 573 399.5C600.3 404 627.7 388 654.8 390.2C682 392.3 709 412.7 736.2 419.2C763.3 425.7 790.7 418.3 818 404.8C845.3 391.3 872.7 371.7 886.3 361.8L900 352L900 601L886.3 601C872.7 601 845.3 601 818 601C790.7 601 763.3 601 736.2 601C709 601 682 601 654.8 601C627.7 601 600.3 601 573 601C545.7 601 518.3 601 491 601C463.7 601 436.3 601 409 601C381.7 601 354.3 601 327 601C299.7 601 272.3 601 245.2 601C218 601 191 601 163.8 601C136.7 601 109.3 601 82 601C54.7 601 27.3 601 13.7 601L0 601Z" fill="#2c68bd"></path><path d="M0 387L13.7 398.7C27.3 410.3 54.7 433.7 82 430.7C109.3 427.7 136.7 398.3 163.8 392.5C191 386.7 218 404.3 245.2 413.3C272.3 422.3 299.7 422.7 327 429.8C354.3 437 381.7 451 409 452.2C436.3 453.3 463.7 441.7 491 442.7C518.3 443.7 545.7 457.3 573 464.5C600.3 471.7 627.7 472.3 654.8 463.8C682 455.3 709 437.7 736.2 433.8C763.3 430 790.7 440 818 448.3C845.3 456.7 872.7 463.3 886.3 466.7L900 470L900 601L886.3 601C872.7 601 845.3 601 818 601C790.7 601 763.3 601 736.2 601C709 601 682 601 654.8 601C627.7 601 600.3 601 573 601C545.7 601 518.3 601 491 601C463.7 601 436.3 601 409 601C381.7 601 354.3 601 327 601C299.7 601 272.3 601 245.2 601C218 601 191 601 163.8 601C136.7 601 109.3 601 82 601C54.7 601 27.3 601 13.7 601L0 601Z" fill="#2c68bd"></path><path d="M0 440L13.7 449.7C27.3 459.3 54.7 478.7 82 475C109.3 471.3 136.7 444.7 163.8 440C191 435.3 218 452.7 245.2 450.7C272.3 448.7 299.7 427.3 327 420.7C354.3 414 381.7 422 409 428.3C436.3 434.7 463.7 439.3 491 445.2C518.3 451 545.7 458 573 463.5C600.3 469 627.7 473 654.8 466.3C682 459.7 709 442.3 736.2 439.2C763.3 436 790.7 447 818 457.2C845.3 467.3 872.7 476.7 886.3 481.3L900 486L900 601L886.3 601C872.7 601 845.3 601 818 601C790.7 601 763.3 601 736.2 601C709 601 682 601 654.8 601C627.7 601 600.3 601 573 601C545.7 601 518.3 601 491 601C463.7 601 436.3 601 409 601C381.7 601 354.3 601 327 601C299.7 601 272.3 601 245.2 601C218 601 191 601 163.8 601C136.7 601 109.3 601 82 601C54.7 601 27.3 601 13.7 601L0 601Z" fill="#708bce"></path><path d="M0 518L13.7 513.3C27.3 508.7 54.7 499.3 82 493.7C109.3 488 136.7 486 163.8 486.3C191 486.7 218 489.3 245.2 487.2C272.3 485 299.7 478 327 475.3C354.3 472.7 381.7 474.3 409 478.8C436.3 483.3 463.7 490.7 491 486.7C518.3 482.7 545.7 467.3 573 469C600.3 470.7 627.7 489.3 654.8 499.7C682 510 709 512 736.2 509.3C763.3 506.7 790.7 499.3 818 497.2C845.3 495 872.7 498 886.3 499.5L900 501L900 601L886.3 601C872.7 601 845.3 601 818 601C790.7 601 763.3 601 736.2 601C709 601 682 601 654.8 601C627.7 601 600.3 601 573 601C545.7 601 518.3 601 491 601C463.7 601 436.3 601 409 601C381.7 601 354.3 601 327 601C299.7 601 272.3 601 245.2 601C218 601 191 601 163.8 601C136.7 601 109.3 601 82 601C54.7 601 27.3 601 13.7 601L0 601Z" fill="#a2b0df"></path><path d="M0 537L13.7 536.7C27.3 536.3 54.7 535.7 82 531.3C109.3 527 136.7 519 163.8 511C191 503 218 495 245.2 500.7C272.3 506.3 299.7 525.7 327 534.2C354.3 542.7 381.7 540.3 409 538.2C436.3 536 463.7 534 491 533.3C518.3 532.7 545.7 533.3 573 535.5C600.3 537.7 627.7 541.3 654.8 540C682 538.7 709 532.3 736.2 525C763.3 517.7 790.7 509.3 818 512C845.3 514.7 872.7 528.3 886.3 535.2L900 542L900 601L886.3 601C872.7 601 845.3 601 818 601C790.7 601 763.3 601 736.2 601C709 601 682 601 654.8 601C627.7 601 600.3 601 573 601C545.7 601 518.3 601 491 601C463.7 601 436.3 601 409 601C381.7 601 354.3 601 327 601C299.7 601 272.3 601 245.2 601C218 601 191 601 163.8 601C136.7 601 109.3 601 82 601C54.7 601 27.3 601 13.7 601L0 601Z" fill="#d1d7ef"></path><path d="M0 544L13.7 546.2C27.3 548.3 54.7 552.7 82 557C109.3 561.3 136.7 565.7 163.8 565.3C191 565 218 560 245.2 554C272.3 548 299.7 541 327 543C354.3 545 381.7 556 409 557.7C436.3 559.3 463.7 551.7 491 549.7C518.3 547.7 545.7 551.3 573 551.2C600.3 551 627.7 547 654.8 549.2C682 551.3 709 559.7 736.2 558C763.3 556.3 790.7 544.7 818 538C845.3 531.3 872.7 529.7 886.3 528.8L900 528L900 601L886.3 601C872.7 601 845.3 601 818 601C790.7 601 763.3 601 736.2 601C709 601 682 601 654.8 601C627.7 601 600.3 601 573 601C545.7 601 518.3 601 491 601C463.7 601 436.3 601 409 601C381.7 601 354.3 601 327 601C299.7 601 272.3 601 245.2 601C218 601 191 601 163.8 601C136.7 601 109.3 601 82 601C54.7 601 27.3 601 13.7 601L0 601Z" fill="#ffffff"></path></svg>