<svg id="visual" viewBox="0 0 900 600" width="900" height="600" xmlns="http://www.w3.org/2000/svg" xmlns:xlink="http://www.w3.org/1999/xlink" version="1.1"><rect x="0" y="0" width="900" height="600" fill="#ffffff"></rect><path d="M0 265L12.5 273.3C25 281.7 50 298.3 75 310.3C100 322.3 125 329.7 150 327.3C175 325 200 313 225 313C250 313 275 325 300 321.8C325 318.7 350 300.3 375 285.5C400 270.7 425 259.3 450 267.8C475 276.3 500 304.7 525 325.2C550 345.7 575 358.3 600 343.3C625 328.3 650 285.7 675 273.7C700 261.7 725 280.3 750 289.5C775 298.7 800 298.3 825 307.5C850 316.7 875 335.3 887.5 344.7L900 354L900 601L887.5 601C875 601 850 601 825 601C800 601 775 601 750 601C725 601 700 601 675 601C650 601 625 601 600 601C575 601 550 601 525 601C500 601 475 601 450 601C425 601 400 601 375 601C350 601 325 601 300 601C275 601 250 601 225 601C200 601 175 601 150 601C125 601 100 601 75 601C50 601 25 601 12.5 601L0 601Z" fill="#2c68bd"></path><path d="M0 351L12.5 350.7C25 350.3 50 349.7 75 351.8C100 354 125 359 150 358C175 357 200 350 225 343.7C250 337.3 275 331.7 300 325.7C325 319.7 350 313.3 375 310.8C400 308.3 425 309.7 450 313.7C475 317.7 500 324.3 525 326C550 327.7 575 324.3 600 323.5C625 322.7 650 324.3 675 325.7C700 327 725 328 750 335C775 342 800 355 825 363.3C850 371.7 875 375.3 887.5 377.2L900 379L900 601L887.5 601C875 601 850 601 825 601C800 601 775 601 750 601C725 601 700 601 675 601C650 601 625 601 600 601C575 601 550 601 525 601C500 601 475 601 450 601C425 601 400 601 375 601C350 601 325 601 300 601C275 601 250 601 225 601C200 601 175 601 150 601C125 601 100 601 75 601C50 601 25 601 12.5 601L0 601Z" fill="#577cc7"></path><path d="M0 354L12.5 358.3C25 362.7 50 371.3 75 377.8C100 384.3 125 388.7 150 383.7C175 378.7 200 364.3 225 364.2C250 364 275 378 300 376.2C325 374.3 350 356.7 375 350.2C400 343.7 425 348.3 450 363.3C475 378.3 500 403.7 525 400.8C550 398 575 367 600 358.3C625 349.7 650 363.3 675 366.3C700 369.3 725 361.7 750 361.8C775 362 800 370 825 370.5C850 371 875 364 887.5 360.5L900 357L900 601L887.5 601C875 601 850 601 825 601C800 601 775 601 750 601C725 601 700 601 675 601C650 601 625 601 600 601C575 601 550 601 525 601C500 601 475 601 450 601C425 601 400 601 375 601C350 601 325 601 300 601C275 601 250 601 225 601C200 601 175 601 150 601C125 601 100 601 75 601C50 601 25 601 12.5 601L0 601Z" fill="#7790d1"></path><path d="M0 423L12.5 423.8C25 424.7 50 426.3 75 421.7C100 417 125 406 150 409.8C175 413.7 200 432.3 225 440.2C250 448 275 445 300 437.7C325 430.3 350 418.7 375 410C400 401.3 425 395.7 450 394.8C475 394 500 398 525 405.2C550 412.3 575 422.7 600 430.8C625 439 650 445 675 436.3C700 427.7 725 404.3 750 399.5C775 394.7 800 408.3 825 409.7C850 411 875 400 887.5 394.5L900 389L900 601L887.5 601C875 601 850 601 825 601C800 601 775 601 750 601C725 601 700 601 675 601C650 601 625 601 600 601C575 601 550 601 525 601C500 601 475 601 450 601C425 601 400 601 375 601C350 601 325 601 300 601C275 601 250 601 225 601C200 601 175 601 150 601C125 601 100 601 75 601C50 601 25 601 12.5 601L0 601Z" fill="#94a5da"></path><path d="M0 464L12.5 454.7C25 445.3 50 426.7 75 421.3C100 416 125 424 150 432.8C175 441.7 200 451.3 225 457.5C250 463.7 275 466.3 300 458.3C325 450.3 350 431.7 375 424.7C400 417.7 425 422.3 450 429.3C475 436.3 500 445.7 525 452.3C550 459 575 463 600 467C625 471 650 475 675 469.5C700 464 725 449 750 447.8C775 446.7 800 459.3 825 466.5C850 473.7 875 475.3 887.5 476.2L900 477L900 601L887.5 601C875 601 850 601 825 601C800 601 775 601 750 601C725 601 700 601 675 601C650 601 625 601 600 601C575 601 550 601 525 601C500 601 475 601 450 601C425 601 400 601 375 601C350 601 325 601 300 601C275 601 250 601 225 601C200 601 175 601 150 601C125 601 100 601 75 601C50 601 25 601 12.5 601L0 601Z" fill="#b0bbe4"></path><path d="M0 478L12.5 482.7C25 487.3 50 496.7 75 501.2C100 505.7 125 505.3 150 498.3C175 491.3 200 477.7 225 477C250 476.3 275 488.7 300 486.5C325 484.3 350 467.7 375 460.5C400 453.3 425 455.7 450 460.5C475 465.3 500 472.7 525 475.5C550 478.3 575 476.7 600 475.3C625 474 650 473 675 474.5C700 476 725 480 750 479.8C775 479.7 800 475.3 825 479.7C850 484 875 497 887.5 503.5L900 510L900 601L887.5 601C875 601 850 601 825 601C800 601 775 601 750 601C725 601 700 601 675 601C650 601 625 601 600 601C575 601 550 601 525 601C500 601 475 601 450 601C425 601 400 601 375 601C350 601 325 601 300 601C275 601 250 601 225 601C200 601 175 601 150 601C125 601 100 601 75 601C50 601 25 601 12.5 601L0 601Z" fill="#cad1ed"></path><path d="M0 498L12.5 501.7C25 505.3 50 512.7 75 516.5C100 520.3 125 520.7 150 524.2C175 527.7 200 534.3 225 534.2C250 534 275 527 300 521.7C325 516.3 350 512.7 375 512C400 511.3 425 513.7 450 518.7C475 523.7 500 531.3 525 530.3C550 529.3 575 519.7 600 512.8C625 506 650 502 675 499.5C700 497 725 496 750 494.7C775 493.3 800 491.7 825 491.2C850 490.7 875 491.3 887.5 491.7L900 492L900 601L887.5 601C875 601 850 601 825 601C800 601 775 601 750 601C725 601 700 601 675 601C650 601 625 601 600 601C575 601 550 601 525 601C500 601 475 601 450 601C425 601 400 601 375 601C350 601 325 601 300 601C275 601 250 601 225 601C200 601 175 601 150 601C125 601 100 601 75 601C50 601 25 601 12.5 601L0 601Z" fill="#e5e8f6"></path><path d="M0 543L12.5 541.7C25 540.3 50 537.7 75 538.3C100 539 125 543 150 543C175 543 200 539 225 537.8C250 536.7 275 538.3 300 538.2C325 538 350 536 375 536.3C400 536.7 425 539.3 450 540.8C475 542.3 500 542.7 525 541.7C550 540.7 575 538.3 600 539.7C625 541 650 546 675 549.7C700 553.3 725 555.7 750 554.2C775 552.7 800 547.3 825 546.7C850 546 875 550 887.5 552L900 554L900 601L887.5 601C875 601 850 601 825 601C800 601 775 601 750 601C725 601 700 601 675 601C650 601 625 601 600 601C575 601 550 601 525 601C500 601 475 601 450 601C425 601 400 601 375 601C350 601 325 601 300 601C275 601 250 601 225 601C200 601 175 601 150 601C125 601 100 601 75 601C50 601 25 601 12.5 601L0 601Z" fill="#ffffff"></path></svg>