<svg id="visual" viewBox="0 0 900 600" width="900" height="600" xmlns="http://www.w3.org/2000/svg" xmlns:xlink="http://www.w3.org/1999/xlink" version="1.1"><rect x="0" y="0" width="900" height="600" fill="#ffffff"></rect><path d="M0 339L12.5 341.8C25 344.7 50 350.3 75 352.5C100 354.7 125 353.3 150 338.2C175 323 200 294 225 287.7C250 281.3 275 297.7 300 305C325 312.3 350 310.7 375 299C400 287.3 425 265.7 450 265.3C475 265 500 286 525 297.3C550 308.7 575 310.3 600 310.2C625 310 650 308 675 297.2C700 286.3 725 266.7 750 271.5C775 276.3 800 305.7 825 312.5C850 319.3 875 303.7 887.5 295.8L900 288L900 601L887.5 601C875 601 850 601 825 601C800 601 775 601 750 601C725 601 700 601 675 601C650 601 625 601 600 601C575 601 550 601 525 601C500 601 475 601 450 601C425 601 400 601 375 601C350 601 325 601 300 601C275 601 250 601 225 601C200 601 175 601 150 601C125 601 100 601 75 601C50 601 25 601 12.5 601L0 601Z" fill="#2c68bd"></path><path d="M0 286L12.5 303.5C25 321 50 356 75 372C100 388 125 385 150 369.7C175 354.3 200 326.7 225 322C250 317.3 275 335.7 300 342.8C325 350 350 346 375 350.7C400 355.3 425 368.7 450 363.2C475 357.7 500 333.3 525 322.7C550 312 575 315 600 321C625 327 650 336 675 348.8C700 361.7 725 378.3 750 374C775 369.7 800 344.3 825 344.2C850 344 875 369 887.5 381.5L900 394L900 601L887.5 601C875 601 850 601 825 601C800 601 775 601 750 601C725 601 700 601 675 601C650 601 625 601 600 601C575 601 550 601 525 601C500 601 475 601 450 601C425 601 400 601 375 601C350 601 325 601 300 601C275 601 250 601 225 601C200 601 175 601 150 601C125 601 100 601 75 601C50 601 25 601 12.5 601L0 601Z" fill="#577cc7"></path><path d="M0 363L12.5 372C25 381 50 399 75 401.3C100 403.7 125 390.3 150 376.5C175 362.7 200 348.3 225 351C250 353.7 275 373.3 300 384.7C325 396 350 399 375 403.2C400 407.3 425 412.7 450 408C475 403.3 500 388.7 525 374.3C550 360 575 346 600 344.8C625 343.7 650 355.3 675 366.7C700 378 725 389 750 392.5C775 396 800 392 825 385.7C850 379.3 875 370.7 887.5 366.3L900 362L900 601L887.5 601C875 601 850 601 825 601C800 601 775 601 750 601C725 601 700 601 675 601C650 601 625 601 600 601C575 601 550 601 525 601C500 601 475 601 450 601C425 601 400 601 375 601C350 601 325 601 300 601C275 601 250 601 225 601C200 601 175 601 150 601C125 601 100 601 75 601C50 601 25 601 12.5 601L0 601Z" fill="#7790d1"></path><path d="M0 427L12.5 425C25 423 50 419 75 424.3C100 429.7 125 444.3 150 446.5C175 448.7 200 438.3 225 430C250 421.7 275 415.3 300 417.8C325 420.3 350 431.7 375 439.3C400 447 425 451 450 453.3C475 455.7 500 456.3 525 447.3C550 438.3 575 419.7 600 414.7C625 409.7 650 418.3 675 421.3C700 424.3 725 421.7 750 420.8C775 420 800 421 825 412.8C850 404.7 875 387.3 887.5 378.7L900 370L900 601L887.5 601C875 601 850 601 825 601C800 601 775 601 750 601C725 601 700 601 675 601C650 601 625 601 600 601C575 601 550 601 525 601C500 601 475 601 450 601C425 601 400 601 375 601C350 601 325 601 300 601C275 601 250 601 225 601C200 601 175 601 150 601C125 601 100 601 75 601C50 601 25 601 12.5 601L0 601Z" fill="#94a5da"></path><path d="M0 435L12.5 438C25 441 50 447 75 453.5C100 460 125 467 150 464.7C175 462.3 200 450.7 225 450.5C250 450.3 275 461.7 300 463.2C325 464.7 350 456.3 375 445.5C400 434.7 425 421.3 450 424C475 426.7 500 445.3 525 450.5C550 455.7 575 447.3 600 445.8C625 444.3 650 449.7 675 455.8C700 462 725 469 750 465.5C775 462 800 448 825 447.7C850 447.3 875 460.7 887.5 467.3L900 474L900 601L887.5 601C875 601 850 601 825 601C800 601 775 601 750 601C725 601 700 601 675 601C650 601 625 601 600 601C575 601 550 601 525 601C500 601 475 601 450 601C425 601 400 601 375 601C350 601 325 601 300 601C275 601 250 601 225 601C200 601 175 601 150 601C125 601 100 601 75 601C50 601 25 601 12.5 601L0 601Z" fill="#b0bbe4"></path><path d="M0 485L12.5 485C25 485 50 485 75 482.2C100 479.3 125 473.7 150 477C175 480.3 200 492.7 225 491.7C250 490.7 275 476.3 300 470.5C325 464.7 350 467.3 375 473.7C400 480 425 490 450 490.8C475 491.7 500 483.3 525 483C550 482.7 575 490.3 600 490C625 489.7 650 481.3 675 477.3C700 473.3 725 473.7 750 478.8C775 484 800 494 825 498.8C850 503.7 875 503.3 887.5 503.2L900 503L900 601L887.5 601C875 601 850 601 825 601C800 601 775 601 750 601C725 601 700 601 675 601C650 601 625 601 600 601C575 601 550 601 525 601C500 601 475 601 450 601C425 601 400 601 375 601C350 601 325 601 300 601C275 601 250 601 225 601C200 601 175 601 150 601C125 601 100 601 75 601C50 601 25 601 12.5 601L0 601Z" fill="#cad1ed"></path><path d="M0 526L12.5 522.7C25 519.3 50 512.7 75 515.7C100 518.7 125 531.3 150 530.7C175 530 200 516 225 509.3C250 502.7 275 503.3 300 510.3C325 517.3 350 530.7 375 534.3C400 538 425 532 450 531.3C475 530.7 500 535.3 525 536.7C550 538 575 536 600 534.8C625 533.7 650 533.3 675 528.3C700 523.3 725 513.7 750 508.7C775 503.7 800 503.3 825 506.2C850 509 875 515 887.5 518L900 521L900 601L887.5 601C875 601 850 601 825 601C800 601 775 601 750 601C725 601 700 601 675 601C650 601 625 601 600 601C575 601 550 601 525 601C500 601 475 601 450 601C425 601 400 601 375 601C350 601 325 601 300 601C275 601 250 601 225 601C200 601 175 601 150 601C125 601 100 601 75 601C50 601 25 601 12.5 601L0 601Z" fill="#e5e8f6"></path><path d="M0 551L12.5 552.8C25 554.7 50 558.3 75 556.7C100 555 125 548 150 545.5C175 543 200 545 225 543.8C250 542.7 275 538.3 300 539.5C325 540.7 350 547.3 375 550.3C400 553.3 425 552.7 450 552C475 551.3 500 550.7 525 549.2C550 547.7 575 545.3 600 542.5C625 539.7 650 536.3 675 535.8C700 535.3 725 537.7 750 538C775 538.3 800 536.7 825 542.2C850 547.7 875 560.3 887.5 566.7L900 573L900 601L887.5 601C875 601 850 601 825 601C800 601 775 601 750 601C725 601 700 601 675 601C650 601 625 601 600 601C575 601 550 601 525 601C500 601 475 601 450 601C425 601 400 601 375 601C350 601 325 601 300 601C275 601 250 601 225 601C200 601 175 601 150 601C125 601 100 601 75 601C50 601 25 601 12.5 601L0 601Z" fill="#ffffff"></path></svg>